<?xml version="1.0" standalone="no"?>
<!DOCTYPE svg PUBLIC "-//W3C//DTD SVG 20010904//EN"
 "http://www.w3.org/TR/2001/REC-SVG-20010904/DTD/svg10.dtd">
<svg version="1.0" xmlns="http://www.w3.org/2000/svg"
 width="260.000000pt" height="260.000000pt" viewBox="0 0 260.000000 260.000000"
 preserveAspectRatio="xMidYMid meet">
<metadata>
Created by potrace 1.14, written by Peter Selinger 2001-2017
</metadata>
<g transform="translate(0.000000,260.000000) scale(0.100000,-0.100000)"
fill="#000000" stroke="none">
<path d="M305 2330 l0 -100 322 0 322 0 -72 100 -72 100 -250 0 -251 0 1 -100z"/>
<path d="M1797 2338 c1 -51 2 -96 2 -100 1 -5 113 -8 249 -8 l248 0 -1 100 0
100 -250 0 -250 0 2 -92z"/>
<path d="M309 2165 c-5 -1 -4 -186 0 -192 7 -9 821 -12 821 -3 0 3 -31 48 -68
100 l-68 95 -342 0 c-188 0 -342 0 -343 0z"/>
<path d="M1799 2160 c-1 -7 -1 -162 0 -180 1 -13 34 -15 244 -14 133 1 245 2
248 3 3 0 5 45 4 99 l-1 97 -247 0 c-136 0 -247 -2 -248 -5z"/>
<path d="M305 1800 l-1 -100 509 0 c280 0 507 4 505 8 -1 5 -32 50 -68 100
l-65 92 -440 0 -440 0 0 -100z"/>
<path d="M1799 1873 c-1 -31 -1 -128 0 -155 1 -17 20 -18 249 -18 l247 0 0 98
0 97 -248 3 -247 2 -1 -27z"/>
<path d="M311 1630 c-5 -4 -8 -167 -2 -190 2 -11 491 -5 492 5 1 6 1 19 0 30
-1 17 2 15 24 -10 l25 -30 330 0 c181 0 330 2 330 5 0 3 -31 48 -69 100 l-68
95 -527 0 c-290 0 -531 -2 -535 -5z"/>
<path d="M1799 1635 c-1 0 -1 -166 0 -185 1 -14 32 -16 244 -16 155 0 244 4
248 11 5 8 5 141 0 180 -1 7 -88 10 -246 10 -135 0 -245 0 -246 0z"/>
<path d="M305 1270 l0 -100 247 0 c191 0 248 3 249 13 1 15 1 170 0 180 -1 4
-112 7 -249 7 l-247 0 0 -100z"/>
<path d="M906 1358 c8 -13 87 -127 115 -166 l16 -22 332 2 332 3 -68 97 -68
98 -333 0 c-264 0 -332 -3 -326 -12z"/>
<path d="M1799 1363 c-1 -11 -1 -166 0 -180 1 -10 58 -13 249 -13 l248 0 -1
100 0 100 -247 0 c-137 0 -248 -3 -249 -7z"/>
<path d="M309 1105 c-1 0 -2 -44 -3 -97 -1 -61 2 -98 9 -99 5 -1 115 -2 244
-3 195 -1 234 1 239 13 5 12 6 102 3 169 -1 16 -19 17 -246 17 -135 0 -246 0
-246 0z"/>
<path d="M1090 1100 c0 -3 32 -48 70 -100 l69 -95 530 0 c292 0 532 3 532 7 3
20 5 174 2 183 -2 7 -85 11 -246 10 l-242 0 -3 -29 -4 -29 -23 29 -23 29 -331
0 c-182 0 -331 -2 -331 -5z"/>
<path d="M305 743 l0 -98 249 0 249 0 0 95 1 95 -250 3 -250 2 1 -97z"/>
<path d="M1282 832 c1 -5 32 -50 68 -100 l65 -92 440 0 440 0 0 98 0 97 -508
3 c-280 1 -507 -2 -505 -6z"/>
<path d="M320 572 c-13 -2 -16 -19 -14 -95 1 -51 2 -94 3 -97 0 -3 111 -5 246
-5 239 0 245 0 246 20 3 74 1 167 -5 173 -7 6 -444 11 -476 4z"/>
<path d="M1470 570 c0 -3 31 -48 68 -100 l68 -95 344 0 345 0 0 98 c1 60 -3
97 -10 98 -36 5 -815 3 -815 -1z"/>
<path d="M305 210 l0 -100 247 0 c191 0 248 3 249 13 1 15 1 170 0 180 -1 4
-113 7 -249 7 l-248 0 1 -100z"/>
<path d="M1660 304 c0 -3 30 -48 67 -100 l67 -94 251 0 251 0 -1 100 0 100
-317 0 c-175 0 -318 -2 -318 -6z"/>
</g>
</svg>
